# xmcd CD database file
#
# Track frame offsets:
#	150
#	19903
#	36633
#	48220
#	68081
#	89036
#	104783
#
# Disc length: 1583 seconds
#
# Revision: 1
# Processed by: cddbd v1.4PL0 Copyright (c) Steve Scherf et al.
# Submitted via: CDex 1.50Beta3
#
DISCID=64062d07
DTITLE=REVEREND Blues Gang - STILL ALIVE AND BLUES
DYEAR=2001
DGENRE=Blues
TTITLE0=Everyday I have the blues
TTITLE1=Hold in I'me comin'
TTITLE2=Youngblood
TTITLE3=Going Down
TTITLE4=Damn right I've got the blues
TTITLE5=Route 66
TTITLE6=I Got my mojo working
EXTD=YEAR: 2001
EXTT0=
EXTT1=
EXTT2=
EXTT3=
EXTT4=
EXTT5=
EXTT6=
PLAYORDER=
